<?xml version="1.0" encoding="UTF-8"?>
<svg xmlns="http://www.w3.org/2000/svg" xmlns:xlink="http://www.w3.org/1999/xlink" width="50pt" height="50pt" viewBox="0 0 50 50" version="1.1">
<g id="surface1">
<path style=" stroke:none;fill-rule:nonzero;fill:rgb(95.294118%,95.294118%,95.294118%);fill-opacity:1;" d="M 50 9.5 C 48.160156 10.3125 46.183594 10.867188 44.109375 11.113281 C 46.230469 9.84375 47.851562 7.832031 48.617188 5.441406 C 46.632812 6.617188 44.4375 7.46875 42.101562 7.933594 C 40.230469 5.9375 37.566406 4.691406 34.617188 4.691406 C 28.949219 4.691406 24.359375 9.285156 24.359375 14.945312 C 24.359375 15.75 24.449219 16.535156 24.625 17.285156 C 16.101562 16.855469 8.542969 12.773438 3.484375 6.566406 C 2.597656 8.078125 2.097656 9.84375 2.097656 11.722656 C 2.097656 15.28125 3.910156 18.421875 6.65625 20.257812 C 4.976562 20.203125 3.394531 19.738281 2.011719 18.972656 L 2.011719 19.097656 C 2.011719 24.066406 5.550781 28.214844 10.238281 29.15625 C 9.378906 29.386719 8.472656 29.515625 7.535156 29.515625 C 6.875 29.515625 6.234375 29.449219 5.605469 29.324219 C 6.910156 33.402344 10.699219 36.367188 15.183594 36.449219 C 11.675781 39.199219 7.25 40.832031 2.445312 40.832031 C 1.617188 40.832031 0.804688 40.78125 0 40.691406 C 4.539062 43.609375 9.929688 45.308594 15.722656 45.308594 C 34.589844 45.308594 44.902344 29.679688 44.902344 16.125 L 44.871094 14.796875 C 46.886719 13.359375 48.628906 11.554688 50 9.5 Z M 50 9.5 "/>
</g>
</svg>
